# xmcd CD database file
#
# Track frame offsets:
#	150
#	16986
#	29649
#	51658
#	69169
#
# Disc length: 1163 seconds
#
# Revision: 0
# Processed by: cddbd v1.5.2PL0 Copyright (c) Steve Scherf et al.
# Submitted via: CDex 1.51
#
DISCID=40048905
DTITLE=Arthur Delille - Paradoxe
DYEAR=1900
DGENRE=New Age
TTITLE0=Le voltijeur
TTITLE1=Retourne dans ton village
TTITLE2=Hydrocéphale
TTITLE3=Paradoxe
TTITLE4=La fille de l'estuaire
EXTD=
EXTT0=
EXTT1=
EXTT2=
EXTT3=
EXTT4=
PLAYORDER=
